<?xml version="1.0"?>
<svg xmlns="http://www.w3.org/2000/svg" xmlns:xlink="http://www.w3.org/1999/xlink" viewBox="2 49 279 150" role="img" aria-label="H·P ENGINEERING">
  <defs>
    
    <linearGradient id="brassFull" data-name="흐린 놋쇠 2" x1="26.8801" y1="188.90563" x2="216.88833" y2="47.93709" gradientUnits="userSpaceOnUse">
      <stop offset=".00562" stop-color="#f0cd7e"></stop>
      <stop offset=".18539" stop-color="#e8c57e"></stop>
      <stop offset=".59551" stop-color="#c88a03"></stop>
      <stop offset=".79267" stop-color="#e3b75e"></stop>
      <stop offset=".87079" stop-color="#efca84"></stop>
      <stop offset="1" stop-color="#f4e8cf"></stop>
    </linearGradient>
  </defs>
  <g>
    <path fill="#e8c57e" d="M26.70082,172.49544c-.05667,3.13805-.05667,6.33755-.05667,9.53753v1.35359c0,3.13805,0,6.30743.05667,9.47632l2.46377.27665v1.0461h-9.68793v-1.0461l2.3521-.27665c.08393-3.04599.08393-6.24574.08393-9.78381h-7.53166c0,3.47663,0,6.67613.08418,9.81418l2.32364.24628v1.0461H7.10139v-1.0461l2.49198-.27665c.02774-3.10768.02774-6.27682.02774-9.47632v-1.35359c0-3.19998,0-6.36864-.02774-9.50669l-2.49198-.27689v-1.04586h9.68745v1.04586l-2.32364.24604c-.08418,3.07636-.08418,6.2455-.08418,9.41439h7.53166c0-3.13829,0-6.30719-.08393-9.41439l-2.3521-.24604v-1.04586h9.68793v1.04586l-2.46377.24604Z"></path>
    <path fill="#e8c57e" d="M32.49799,182.86388c0-1.53866,1.14772-2.8308,2.57592-2.8308,1.42794,0,2.5759,1.29214,2.5759,2.8308,0,1.53794-1.14796,2.73778-2.5759,2.73778-1.4282,0-2.57592-1.19984-2.57592-2.73778Z"></path>
    <path fill="#e8c57e" d="M48.31832,184.98668c0,2.30739,0,5.04565.05571,7.81452l2.99626.33834v1.0461h-10.3878v-1.0461l2.51972-.27665c.08417-3.10768.08417-6.27682.08417-9.47632v-1.35359c0-3.19998,0-6.36864-.08417-9.53753l-2.51972-.24604v-1.04586h8.53974c6.35573,0,8.90366,2.49174,8.90366,6.82988,0,3.84533-2.38008,6.95326-9.04376,6.95326h-1.0638ZM48.37403,172.37254c-.05571,3.16866-.05571,6.399-.05571,9.66044v1.81507h.92367c3.2478,0,4.81587-2.39969,4.81587-5.84547,0-3.72267-1.62378-5.63003-4.59159-5.63003h-1.09224Z"></path>
    <path fill="#e8c57e" d="M83.82201,194.18563h-16.60293v-1.0461l2.51972-.27665c.08417-3.10768.08417-6.27682.08417-9.47632v-1.35359c0-3.19998,0-6.36864-.08417-9.53753l-2.51972-.24604v-1.04586h16.0152l-.02796,6.12212h-1.62379l-1.28807-4.92275h-5.68406c-.05572,3.07684-.05572,6.2455-.05572,9.50693h3.80755l.42035-3.41494h1.40022v7.78392h-1.40022l-.39189-3.26143h-3.83602v.0923c0,3.41494,0,6.67637.05572,9.87611h6.30024l1.2876-5.16879h1.56831l.05547,6.36864Z"></path>
    <path fill="#e8c57e" d="M107.11876,172.2494l-2.57591.40003-.19631,21.59766h-2.46352l-12.34778-19.13676.16809,17.56773,3.75184.46148v1.0461h-7.78392v-1.0461l2.57615-.43063.16809-19.35195-.53224-.86151-1.98748-.24604v-1.04586h6.74738l10.61161,16.12089-.14012-14.64464-3.72363-.43039v-1.04586h7.72773v1.04586Z"></path>
    <path fill="#e8c57e" d="M128.5115,183.94034l-1.73616.24652c-.05571,2.2457-.08393,4.55309-.08393,7.07568v1.50757c-2.184,1.41552-4.17148,2.03098-6.83131,2.03098-6.63619,0-11.14386-4.52296-11.14386-12.1529,0-7.44534,4.59207-12.06036,11.33945-12.06036,2.40806,0,4.34005.58462,6.07597,1.66156l-.11214,5.63027h-1.73592l-1.45617-5.69172c-.67165-.30797-1.34355-.43111-2.1558-.43111-3.94767,0-6.99964,3.53832-6.99964,10.92245,0,6.86048,2.96781,10.95257,6.71965,10.95257.64393,0,1.26034-.06145,1.84806-.21568v-2.30739c0-2.27678-.02821-4.46104-.08393-6.76843l-2.99602-.40003v-1.0461h9.35175v1.0461Z"></path>
    <path fill="#e8c57e" d="M137.24874,172.49544c-.05595,3.13805-.05595,6.33755-.05595,9.53753v1.32274c0,3.1689,0,6.33827.05595,9.50717l2.49198.27665v1.0461h-9.88376v-1.0461l2.51972-.27665c.08417-3.10768.08417-6.27682.08417-9.47632v-1.35359c0-3.19998,0-6.36864-.08417-9.53753l-2.51972-.24604v-1.04586h9.88376v1.04586l-2.49198.24604Z"></path>
    <path fill="#e8c57e" d="M163.09295,172.2494l-2.57615.40003-.19631,21.59766h-2.46353l-12.34753-19.13676.16785,17.56773,3.7516.46148v1.0461h-7.78344v-1.0461l2.57591-.43063.16809-19.35195-.53201-.86151-1.98794-.24604v-1.04586h6.74762l10.61185,16.12089-.14012-14.64464-3.72387-.43039v-1.04586h7.72797v1.04586Z"></path>
    <path fill="#e8c57e" d="M181.5179,194.18563h-16.60342v-1.0461l2.51997-.27665c.08415-3.10768.08415-6.27682.08415-9.47632v-1.35359c0-3.19998,0-6.36864-.08415-9.53753l-2.51997-.24604v-1.04586h16.01568l-.02821,6.12212h-1.62378l-1.28783-4.92275h-5.68407c-.05595,3.07684-.05595,6.2455-.05595,9.50693h3.80779l.42035-3.41494h1.39974v7.78392h-1.39974l-.39238-3.26143h-3.83577v.0923c0,3.41494,0,6.67637.05595,9.87611h6.29977l1.28807-5.16879h1.56783l.05597,6.36864Z"></path>
    <path fill="#e8c57e" d="M200.39019,194.18563h-16.60293v-1.0461l2.51972-.27665c.08417-3.10768.08417-6.27682.08417-9.47632v-1.35359c0-3.19998,0-6.36864-.08417-9.53753l-2.51972-.24604v-1.04586h16.01522l-.02799,6.12212h-1.62378l-1.28807-4.92275h-5.68383c-.05571,3.07684-.05571,6.2455-.05571,9.50693h3.80779l.41987-3.41494h1.40022v7.78392h-1.40022l-.3919-3.26143h-3.83577v.0923c0,3.41494,0,6.67637.05571,9.87611h6.30001l1.2876-5.16879h1.56831l.05547,6.36864Z"></path>
    <path fill="#e8c57e" d="M222.90291,193.13954v1.0461c-1.14794.30749-1.93199.46148-3.33173.46148-2.57591,0-4.0041-.8309-4.28408-3.32288l-.81203-4.2456c-.39166-2.52307-1.06379-3.75328-3.21959-3.75328h-1.372c0,3.23035,0,6.399.08393,9.53753l2.57591.27665v1.0461h-9.88351v-1.0461l2.51946-.27665c.08442-3.10768.08442-6.27682.08442-9.47632v-1.35359c0-3.19998,0-6.36864-.08442-9.53753l-2.51946-.24604v-1.04586h10.07934c4.92801,0,7.61582,2.12232,7.61582,5.78378,0,2.52259-1.56783,4.89143-5.96383,5.63027,3.66791.55377,4.6198,2.24594,5.09611,5.29146l.92367,5.07674,2.49198.15375ZM211.5355,182.18672c3.13564,0,4.33981-2.30739,4.33981-5.10734,0-3.04552-1.48416-4.70684-4.31233-4.70684h-1.59557c-.08393,3.10721-.08393,6.27586-.08393,9.81418h1.65201Z"></path>
    <path fill="#e8c57e" d="M231.61169,172.49544c-.0557,3.13805-.0557,6.33755-.0557,9.53753v1.32274c0,3.1689,0,6.33827.0557,9.50717l2.49222.27665v1.0461h-9.88375v-1.0461l2.5197-.27665c.08418-3.10768.08418-6.27682.08418-9.47632v-1.35359c0-3.19998,0-6.36864-.08418-9.53753l-2.5197-.24604v-1.04586h9.88375v1.04586l-2.49222.24604Z"></path>
    <path fill="#e8c57e" d="M257.45567,172.2494l-2.57567.40003-.19631,21.59766h-2.46353l-12.34799-19.13676.16832,17.56773,3.75184.46148v1.0461h-7.78392v-1.0461l2.57591-.43063.16833-19.35195-.53225-.86151-1.9877-.24604v-1.04586h6.74762l10.61137,16.12089-.13988-14.64464-3.72361-.43039v-1.04586h7.72747v1.04586Z"></path>
    <path fill="#e8c57e" d="M278.84864,183.94034l-1.73592.24652c-.05619,2.2457-.08417,4.55309-.08417,7.07568v1.50757c-2.18401,1.41552-4.17146,2.03098-6.83155,2.03098-6.63596,0-11.1436-4.52296-11.1436-12.1529,0-7.44534,4.59181-12.06036,11.33919-12.06036,2.40806,0,4.34005.58462,6.07621,1.66156l-.11214,5.63027h-1.73592l-1.45617-5.69172c-.67189-.30797-1.34379-.43111-2.15578-.43111-3.94793,0-6.99966,3.53832-6.99966,10.92245,0,6.86048,2.96781,10.95257,6.71941,10.95257.64392,0,1.26059-.06145,1.84806-.21568v-2.30739c0-2.27678-.02796-4.46104-.08393-6.76843l-2.99578-.40003v-1.0461h9.35175v1.0461Z"></path>
  </g>
  <path fill="url(#brassFull)" d="M122.76144,77.74704h7.29016s-3.19448,1.39256-3.19448,5.97961v15.6453h21.70694l-.49138,4.25971h-21.05177v18.75801s.06145,3.80899,2.94892,4.91462h-14.98991s3.13303-1.72014,3.13303-4.17721v-40.24018s.30701-3.39916-3.13303-5.13986h7.78153Z"></path>
  <path fill="url(#brassFull)" d="M164.55773,77.74704h-15.35861s2.94868,1.82224,2.94868,3.97254v41.83718s-.67572,2.94916-2.94868,3.74754h13.51535s-3.25595-1.96594-3.25595-3.8702v-18.30753h5.52913s11.91833-.49137,11.91833-13.76161-12.34825-13.61791-12.34825-13.61791ZM169.59525,93.76081c0,6.08219-5.59034,7.24951-5.59034,7.24951h-4.48471l-.06169-19.59776h4.116c5.71372,0,6.02074,8.04813,6.02074,8.04813v4.30012Z"></path>
  <path fill="url(#brassFull)" d="M142.97489,57.03528c25.26079,0,45.73894,20.47791,45.73894,45.7387s-20.47815,45.73918-45.73894,45.73918-45.73894-20.47815-45.73894-45.73918,20.47815-45.7387,45.73894-45.7387M142.97489,52.61179c-27.65928,0-50.1622,22.50244-50.1622,50.1622s22.50292,50.1622,50.1622,50.1622,50.16243-22.50268,50.16243-50.1622-22.50292-50.1622-50.16243-50.1622h0Z"></path>
</svg>